# xmcd CD database file
#
# Track frame offsets:
#	150
#	15611
#	35386
#	51690
#	68273
#	83094
#	97005
#	113709
#	131938
#	151820
#	164966
#	184469
#
# Disc length: 2677 seconds
#
# Revision: 1
# Processed by: cddbd v1.5PL3 Copyright (c) Steve Scherf et al.
# Submitted via: CDex 1.51
#
DISCID=a50a730c
DTITLE=Poverty Neck Hillbillies - Hillbilly State of Mind
DYEAR=2003
DGENRE=Country
TTITLE0=Mr. Right Now
TTITLE1=If You Could Only See
TTITLE2=Hillbilly State of Mind
TTITLE3=Tell Me What I Don't know
TTITLE4=Stuck On You
TTITLE5=Evil Twin
TTITLE6=Born To Be Free
TTITLE7=I Will Stand By You
TTITLE8=Crazy Things
TTITLE9=This Love In My Heart
TTITLE10=Fly
TTITLE11=Coming To See You
EXTD=YEAR: 2003
EXTT0=
EXTT1=
EXTT2=
EXTT3=
EXTT4=
EXTT5=
EXTT6=
EXTT7=
EXTT8=
EXTT9=
EXTT10=
EXTT11=
PLAYORDER=
